<svg width="16" height="16" viewBox="0 0 16 16" xmlns="http://www.w3.org/2000/svg">
    <path d="M15.8627 0.137343C15.7301 0.00468661 15.5311 -0.0361259 15.3572 0.0335929L0.294672 6.05853C0.122297 6.12744 0.0068912 6.29159 0.000297449 6.47709C-0.0062963 6.66259 0.0972037 6.83453 0.264172 6.9155L6.20377 9.79619L9.08445 15.7358C9.16302 15.8978 9.32708 16 9.50611 16C9.51167 16 9.51727 15.9999 9.52286 15.9997C9.70836 15.9931 9.87249 15.8777 9.94142 15.7053L15.9665 0.642905C16.0361 0.468812 15.9953 0.269937 15.8627 0.137343Z" />
    <path d="M15.8628 0.137344L6.20386 9.79616L9.08455 15.7358C9.16311 15.8978 9.32717 16 9.5062 16C9.51176 16 9.51736 15.9999 9.52295 15.9997C9.70845 15.9931 9.87258 15.8777 9.94151 15.7053L15.9665 0.642907C16.0362 0.468813 15.9954 0.269938 15.8628 0.137344Z" />
</svg>
